<svg xmlns="http://www.w3.org/2000/svg" viewBox="0 0 952 1071" role="img" aria-labelledby="title desc"><title id="title">HABIBCORE mark</title><desc id="desc">Folded-plane B symbol for HABIBCORE.</desc><rect width="952" height="1071" fill="#111111"/><path d="M 840.00,889.00 L 838.00,870.00 L 827.00,851.00 L 768.00,791.00 L 710.00,739.00 L 649.00,679.00 L 580.00,615.00 L 563.00,602.00 L 542.00,595.00 L 525.00,594.00 L 496.00,599.00 L 397.00,630.00 L 375.00,635.00 L 323.00,653.00 L 185.00,695.00 L 140.00,711.00 L 94.00,724.00 L 75.00,732.00 L 69.00,739.00 L 64.00,752.00 L 64.00,762.00 L 69.00,772.00 L 174.00,867.00 L 283.00,974.00 L 301.00,983.00 L 326.00,989.00 L 400.00,1012.00 L 464.00,1028.00 L 481.00,1029.00 L 504.00,1024.00 L 807.00,925.00 L 823.00,918.00 L 833.00,909.00 Z M 335.00,728.00 L 342.00,722.00 L 369.00,711.00 L 378.00,711.00 L 388.00,715.00 L 485.00,803.00 L 573.00,887.00 L 584.00,900.00 L 584.00,912.00 L 577.00,917.00 L 541.00,925.00 L 529.00,923.00 L 491.00,890.00 L 338.00,746.00 L 333.00,736.00 Z M 596.00,51.00 L 573.00,41.00 L 563.00,41.00 L 507.00,54.00 L 355.00,101.00 L 309.00,117.00 L 221.00,141.00 L 187.00,156.00 L 166.00,171.00 L 157.00,180.00 L 147.00,194.00 L 135.00,223.00 L 109.00,325.00 L 80.00,451.00 L 38.00,653.00 L 39.00,673.00 L 42.00,680.00 L 47.00,685.00 L 66.00,688.00 L 88.00,684.00 L 435.00,579.00 L 487.00,565.00 L 517.00,554.00 L 538.00,536.00 L 546.00,526.00 L 553.00,512.00 L 562.00,480.00 L 581.00,396.00 L 591.00,339.00 L 594.00,306.00 L 586.00,287.00 L 576.00,276.00 L 567.00,272.00 L 552.00,269.00 L 522.00,270.00 L 520.00,266.00 L 543.00,253.00 L 555.00,242.00 L 563.00,231.00 L 573.00,209.00 L 591.00,145.00 L 603.00,88.00 L 604.00,66.00 L 600.00,55.00 Z M 331.00,378.00 L 340.00,386.00 L 340.00,402.00 L 320.00,497.00 L 310.00,529.00 L 298.00,543.00 L 289.00,548.00 L 270.00,553.00 L 259.00,551.00 L 254.00,546.00 L 255.00,528.00 L 269.00,471.00 L 276.00,433.00 L 287.00,397.00 L 290.00,392.00 L 301.00,383.00 L 323.00,377.00 Z M 383.00,142.00 L 390.00,149.00 L 389.00,162.00 L 377.00,218.00 L 365.00,262.00 L 361.00,270.00 L 347.00,281.00 L 327.00,285.00 L 318.00,284.00 L 310.00,277.00 L 310.00,264.00 L 332.00,174.00 L 337.00,160.00 L 344.00,151.00 L 359.00,144.00 L 372.00,141.00 Z M 583.00,0.00 L 552.00,2.00 L 504.00,14.00 L 407.00,43.00 L 198.00,111.00 L 174.00,121.00 L 158.00,130.00 L 138.00,145.00 L 124.00,160.00 L 113.00,177.00 L 106.00,193.00 L 81.00,279.00 L 21.00,545.00 L 0.00,656.00 L 0.00,682.00 L 14.00,747.00 L 20.00,767.00 L 35.00,791.00 L 50.00,808.00 L 105.00,858.00 L 254.00,1002.00 L 276.00,1015.00 L 330.00,1034.00 L 392.00,1052.00 L 467.00,1070.00 L 481.00,1070.00 L 506.00,1065.00 L 612.00,1033.00 L 826.00,962.00 L 851.00,950.00 L 868.00,939.00 L 879.00,928.00 L 885.00,919.00 L 895.00,893.00 L 922.00,771.00 L 951.00,615.00 L 951.00,590.00 L 943.00,557.00 L 933.00,538.00 L 914.00,513.00 L 923.00,501.00 L 932.00,478.00 L 942.00,432.00 L 947.00,396.00 L 950.00,341.00 L 946.00,315.00 L 938.00,296.00 L 919.00,272.00 L 885.00,240.00 L 668.00,51.00 L 621.00,16.00 L 601.00,5.00 Z M 582.00,16.00 L 590.00,18.00 L 608.00,27.00 L 658.00,64.00 L 877.00,255.00 L 915.00,292.00 L 924.00,304.00 L 931.00,321.00 L 933.00,332.00 L 933.00,373.00 L 929.00,411.00 L 920.00,460.00 L 913.00,484.00 L 906.00,497.00 L 893.00,510.00 L 893.00,515.00 L 916.00,542.00 L 928.00,563.00 L 934.00,587.00 L 934.00,619.00 L 912.00,739.00 L 883.00,875.00 L 874.00,904.00 L 869.00,914.00 L 857.00,927.00 L 825.00,945.00 L 593.00,1022.00 L 500.00,1050.00 L 473.00,1054.00 L 403.00,1038.00 L 324.00,1015.00 L 278.00,998.00 L 260.00,985.00 L 162.00,889.00 L 77.00,811.00 L 48.00,781.00 L 36.00,763.00 L 32.00,752.00 L 17.00,685.00 L 16.00,661.00 L 23.00,616.00 L 41.00,529.00 L 97.00,282.00 L 119.00,204.00 L 130.00,180.00 L 137.00,170.00 L 155.00,152.00 L 168.00,143.00 L 187.00,133.00 L 214.00,123.00 L 486.00,36.00 L 555.00,18.00 Z" fill="#F5F3EE" fill-rule="evenodd"/></svg>